<svg xmlns="http://www.w3.org/2000/svg" width="1600" height="980" viewBox="0 0 1600 980">
  <defs>
    <style>
      .bg{fill:#f8fafc}
      .title{font:700 32px Arial,sans-serif;fill:#111827}
      .subtitle{font:400 16px Arial,sans-serif;fill:#4b5563}
      .group{fill:#ffffff;stroke:#d1d5db;stroke-width:2;rx:16}
      .groupTitle{font:700 18px Arial,sans-serif;fill:#374151}
      .box{fill:#eef2ff;stroke:#6d5dfc;stroke-width:2;rx:10}
      .box2{fill:#ecfdf5;stroke:#10b981;stroke-width:2;rx:10}
      .box3{fill:#fff7ed;stroke:#f97316;stroke-width:2;rx:10}
      .box4{fill:#fdf2f8;stroke:#ec4899;stroke-width:2;rx:10}
      .head{font:700 15px Arial,sans-serif;fill:#111827}
      .field{font:400 13px Arial,sans-serif;fill:#374151}
      .rel{stroke:#64748b;stroke-width:2;fill:none;marker-end:url(#arrow)}
      .dash{stroke:#94a3b8;stroke-width:2;fill:none;stroke-dasharray:7 7;marker-end:url(#arrow)}
      .label{font:600 12px Arial,sans-serif;fill:#475569}
    </style>
    <marker id="arrow" markerWidth="10" markerHeight="10" refX="8" refY="3" orient="auto" markerUnits="strokeWidth">
      <path d="M0,0 L0,6 L9,3 z" fill="#64748b"/>
    </marker>
  </defs>

  <rect class="bg" x="0" y="0" width="1600" height="980"/>
  <text class="title" x="56" y="58">User Service Relationship Diagram</text>
  <text class="subtitle" x="56" y="88">Migrated User Service entities for identity, organization, facilities, access control, departments, and notification automation.</text>

  <rect class="group" x="50" y="130" width="500" height="370"/>
  <text class="groupTitle" x="75" y="164">Identity and Organization</text>
  <rect class="box" x="85" y="205" width="200" height="126"/>
  <text class="head" x="105" y="233">UserAccounts</text>
  <text class="field" x="105" y="258">PK Oid</text>
  <text class="field" x="105" y="280">Email, Name, Cellphone</text>
  <text class="field" x="105" y="302">RegionId, UserType</text>
  <rect class="box" x="315" y="205" width="200" height="126"/>
  <text class="head" x="335" y="233">Organizations</text>
  <text class="field" x="335" y="258">PK Oid</text>
  <text class="field" x="335" y="280">Name, Suffix, Status</text>
  <text class="field" x="335" y="302">Portal flags</text>
  <rect class="box" x="180" y="370" width="220" height="105"/>
  <text class="head" x="200" y="398">IdentifiedOrganizations</text>
  <text class="field" x="200" y="423">UserAccountId</text>
  <text class="field" x="200" y="445">OrganizationId</text>
  <text class="field" x="200" y="467">IsAdministrator</text>
  <rect class="box" x="420" y="370" width="105" height="105"/>
  <text class="head" x="438" y="398">Login</text>
  <text class="field" x="438" y="423">History</text>
  <text class="field" x="438" y="445">UserId</text>
  <path class="rel" d="M285 268 C330 285 295 355 220 370"/>
  <path class="rel" d="M415 331 C415 350 395 365 400 422"/>
  <path class="rel" d="M285 250 C365 255 470 295 472 370"/>
  <text class="label" x="116" y="360">user assigned</text>
  <text class="label" x="407" y="355">organization owns</text>

  <rect class="group" x="610" y="130" width="430" height="370"/>
  <text class="groupTitle" x="635" y="164">Facility and Region</text>
  <rect class="box2" x="735" y="205" width="180" height="105"/>
  <text class="head" x="757" y="233">Regions</text>
  <text class="field" x="757" y="258">PK Oid</text>
  <text class="field" x="757" y="280">Name</text>
  <rect class="box2" x="655" y="365" width="180" height="118"/>
  <text class="head" x="677" y="393">Companies</text>
  <text class="field" x="677" y="418">Facility records</text>
  <text class="field" x="677" y="440">RegionId</text>
  <text class="field" x="677" y="462">FacilityCode</text>
  <rect class="box2" x="855" y="365" width="160" height="118"/>
  <text class="head" x="877" y="393">Contacts</text>
  <text class="field" x="877" y="418">FullName</text>
  <text class="field" x="877" y="440">Email, Phone</text>
  <text class="field" x="877" y="462">CompanyId</text>
  <path class="rel" d="M803 310 C770 330 745 345 745 365"/>
  <path class="rel" d="M835 424 L855 424"/>
  <path class="dash" d="M735 255 C600 250 420 230 285 245"/>
  <text class="label" x="688" y="346">contains</text>
  <text class="label" x="818" y="409">has</text>
  <text class="label" x="545" y="226">users can be tied to regions</text>

  <rect class="group" x="1080" y="130" width="470" height="370"/>
  <text class="groupTitle" x="1105" y="164">Service Access and Permissions</text>
  <rect class="box3" x="1125" y="205" width="190" height="112"/>
  <text class="head" x="1145" y="233">IdentifiedUserAccesses</text>
  <text class="field" x="1145" y="258">UserAccountId</text>
  <text class="field" x="1145" y="280">Services</text>
  <rect class="box3" x="1330" y="205" width="180" height="112"/>
  <text class="head" x="1350" y="233">IdentifiedUserRoles</text>
  <text class="field" x="1350" y="258">AccessId</text>
  <text class="field" x="1350" y="280">Roles</text>
  <rect class="box3" x="1195" y="365" width="230" height="118"/>
  <text class="head" x="1215" y="393">IdentifiedRoleActions</text>
  <text class="field" x="1215" y="418">Role</text>
  <text class="field" x="1215" y="440">Feature</text>
  <text class="field" x="1215" y="462">ActionType</text>
  <path class="rel" d="M1315 261 L1330 261"/>
  <path class="dash" d="M1420 317 C1420 345 1390 358 1375 365"/>
  <path class="dash" d="M1125 256 C930 220 500 190 285 232"/>
  <text class="label" x="1015" y="232">access belongs to user</text>

  <rect class="group" x="50" y="560" width="500" height="270"/>
  <text class="groupTitle" x="75" y="594">Departments</text>
  <rect class="box4" x="95" y="655" width="170" height="105"/>
  <text class="head" x="115" y="683">Departments</text>
  <text class="field" x="115" y="708">PK Oid</text>
  <text class="field" x="115" y="730">Name</text>
  <rect class="box4" x="320" y="655" width="200" height="105"/>
  <text class="head" x="340" y="683">UserDepartments</text>
  <text class="field" x="340" y="708">DepartmentId</text>
  <text class="field" x="340" y="730">IdentifiedUserId</text>
  <path class="rel" d="M265 708 L320 708"/>
  <path class="dash" d="M420 655 C390 575 335 515 290 475"/>
  <text class="label" x="315" y="625">department membership</text>

  <rect class="group" x="610" y="560" width="940" height="270"/>
  <text class="groupTitle" x="635" y="594">Organization Services and Automation</text>
  <rect class="box" x="660" y="655" width="230" height="105"/>
  <text class="head" x="680" y="683">AssignedOrganizationServices</text>
  <text class="field" x="680" y="708">OrganizationId</text>
  <text class="field" x="680" y="730">Service</text>
  <rect class="box2" x="940" y="655" width="190" height="105"/>
  <text class="head" x="960" y="683">AutomationRules</text>
  <text class="field" x="960" y="708">ServiceType</text>
  <text class="field" x="960" y="730">EventType</text>
  <rect class="box2" x="1180" y="655" width="190" height="105"/>
  <text class="head" x="1200" y="683">AutomationChannels</text>
  <text class="field" x="1200" y="708">AutomationRuleId</text>
  <text class="field" x="1200" y="730">Channel</text>
  <rect class="box2" x="1410" y="655" width="120" height="105"/>
  <text class="head" x="1428" y="683">Roles</text>
  <text class="field" x="1428" y="708">ChannelId</text>
  <text class="field" x="1428" y="730">Role</text>
  <path class="dash" d="M660 705 C560 650 460 465 415 331"/>
  <path class="dash" d="M940 705 C780 610 520 430 415 331"/>
  <path class="rel" d="M1130 708 L1180 708"/>
  <path class="rel" d="M1370 708 L1410 708"/>
  <text class="label" x="665" y="640">organization enables services</text>
  <text class="label" x="930" y="640">rules belong to organization</text>
</svg>
